grf
version=1
nRows=9
nColumns=37
inDegrees=no
endheader
time	ground_force_1_vx	ground_force_1_vy	ground_force_1_vz	ground_force_1_px	ground_force_1_py	ground_force_1_pz	ground_moment_1_mx	ground_moment_1_my	ground_moment_1_mz	ground_force_2_vx	ground_force_2_vy	ground_force_2_vz	ground_force_2_px	ground_force_2_py	ground_force_2_pz	ground_moment_2_mx	ground_moment_2_my	ground_moment_2_mz	ground_force_3_vx	ground_force_3_vy	ground_force_3_vz	ground_force_3_px	ground_force_3_py	ground_force_3_pz	ground_moment_3_mx	ground_moment_3_my	ground_moment_3_mz	ground_force_4_vx	ground_force_4_vy	ground_force_4_vz	ground_force_4_px	ground_force_4_py	ground_force_4_pz	ground_moment_4_mx	ground_moment_4_my	ground_moment_4_mz
      6.16000000	      0.00000000	     -0.00000000	      0.00000000	      0.00000000	      0.00000000	      0.00000000	      0.00000000	      0.00000000	      0.00000000	     14.89453220	     19.09709358	   -208.49246216	   -468.18569293	  -1084.65130452	      0.00000000	      0.00000000	     -0.00000000	   -255.04534123	     28.31354713	    -21.83020267	   -315.94735718	   -458.54088947	   -762.31496998	      0.00000000	      0.00000000	      0.00000000	   1388.95238626	      0.00000000	     -0.00000000	      0.00000000	      0.00000000	      0.00000000	      0.00000000	      0.00000000	      0.00000000	      0.00000000
      6.17000000	      0.00000000	     -0.00000000	      0.00000000	      0.00000000	      0.00000000	      0.00000000	      0.00000000	      0.00000000	      0.00000000	     15.86931324	     17.01375771	   -202.20075989	   -469.01167474	  -1087.44896894	      0.00000000	      0.00000000	     -0.00000000	   -377.17666861	     27.26685339	    -21.17388582	   -317.45141602	   -457.72042162	   -762.72736745	      0.00000000	      0.00000000	      0.00000000	   1644.50784224	      0.00000000	     -0.00000000	      0.00000000	      0.00000000	      0.00000000	      0.00000000	      0.00000000	      0.00000000	      0.00000000
      6.18000000	      0.00000000	     -0.00000000	      0.00000000	      0.00000000	      0.00000000	      0.00000000	      0.00000000	      0.00000000	      0.00000000	     17.27360725	     15.46501350	   -195.03833008	   -469.99861556	  -1085.67386844	      0.00000000	      0.00000000	     -0.00000000	   -404.23841541	     24.75030701	    -22.68917300	   -327.85339355	   -453.95439191	   -760.66058916	      0.00000000	      0.00000000	      0.00000000	   1636.90252341	      0.00000000	     -0.00000000	      0.00000000	      0.00000000	      0.00000000	      0.00000000	      0.00000000	      0.00000000	      0.00000000
      6.19000000	      0.00000000	     -0.00000000	      0.00000000	      0.00000000	      0.00000000	      0.00000000	      0.00000000	      0.00000000	      0.00000000	     17.86460686	     14.96226215	   -195.79692078	   -465.06731437	  -1087.97221056	      0.00000000	      0.00000000	     -0.00000000	   -477.62058106	     22.37808202	    -24.71707158	   -340.38385010	   -452.46677525	   -759.93057579	      0.00000000	     -0.00000000	      0.00000000	   1586.36478415	      0.00000000	     -0.00000000	      0.00000000	      0.00000000	      0.00000000	      0.00000000	      0.00000000	      0.00000000	      0.00000000
      6.20000000	      0.00000000	     -0.00000000	      0.00000000	      0.00000000	      0.00000000	      0.00000000	      0.00000000	      0.00000000	      0.00000000	     14.44085407	     15.20784283	   -200.38456726	   -460.87430762	  -1089.37398197	      0.00000000	      0.00000000	     -0.00000000	   -813.86910445	     21.56702201	    -25.45924757	   -349.80114746	   -452.84516973	   -760.87835329	      0.00000000	      0.00000000	      0.00000000	   1686.84927610	      0.00000000	     -0.00000000	      0.00000000	      0.00000000	      0.00000000	      0.00000000	      0.00000000	      0.00000000	      0.00000000
      6.21000000	      0.00000000	     -0.00000000	      0.00000000	      0.00000000	      0.00000000	      0.00000000	      0.00000000	      0.00000000	      0.00000000	      7.22728062	     13.15894985	   -200.34010315	   -456.62634974	  -1088.27280689	      0.00000000	     -0.00000000	     -0.00000000	   -787.06042347	     25.70479363	    -25.24826275	   -356.61419678	   -454.66445665	   -762.00021514	      0.00000000	     -0.00000000	      0.00000000	   1643.80095607	      0.00000000	     -0.00000000	      0.00000000	      0.00000000	      0.00000000	      0.00000000	      0.00000000	      0.00000000	      0.00000000
      6.22000000	      0.00000000	     -0.00000000	      0.00000000	      0.00000000	      0.00000000	      0.00000000	      0.00000000	      0.00000000	      0.00000000	      3.57825875	      8.69126320	   -185.11355591	   -458.33604564	  -1085.20797418	      0.00000000	     -0.00000000	     -0.00000000	   -916.35839970	     28.08808298	    -25.12765176	   -364.86346436	   -454.64592145	   -761.34245643	      0.00000000	      0.00000000	      0.00000000	   1710.42456029	      0.00000000	     -0.00000000	      0.00000000	      0.00000000	      0.00000000	      0.00000000	      0.00000000	      0.00000000	      0.00000000
      6.23000000	      0.00000000	     -0.00000000	      0.00000000	      0.00000000	      0.00000000	      0.00000000	      0.00000000	      0.00000000	      0.00000000	     10.30227757	      6.72780991	   -177.07710266	   -462.04396254	  -1083.62353354	      0.00000000	      0.00000000	     -0.00000000	  -1166.78471744	     29.37462197	    -26.11001272	   -371.27944946	   -453.71619010	   -760.83254773	      0.00000000	     -0.00000000	     -0.00000000	   1676.29184583	      0.00000000	     -0.00000000	      0.00000000	      0.00000000	      0.00000000	      0.00000000	      0.00000000	      0.00000000	      0.00000000
      6.24000000	      0.00000000	     -0.00000000	      0.00000000	      0.00000000	      0.00000000	      0.00000000	      0.00000000	      0.00000000	      0.00000000	     15.22102547	      6.01837015	   -177.51501465	   -463.78007197	  -1085.71077697	      0.00000000	      0.00000000	     -0.00000000	  -1228.84176639	     30.13992822	    -28.62616993	   -378.82254028	   -451.38451287	   -759.70981135	      0.00000000	      0.00000000	      0.00000000	   1500.36831925	      0.00000000	     -0.00000000	      0.00000000	      0.00000000	      0.00000000	      0.00000000	      0.00000000	      0.00000000	      0.00000000
